<?xml version="1.0" encoding="UTF-8"?>
<svg id="Layer_2" data-name="Layer 2" xmlns="http://www.w3.org/2000/svg" viewBox="0 0 48.26 28.15">
  <defs>
    <style>
      .cls-1 {
        fill: #3d464d;
      }

      .cls-2 {
        fill: #93959e;
      }
    </style>
  </defs>
  <g id="Camada_1" data-name="Camada 1">
    <g id="Camada_1-2" data-name="Camada 1">
      <g>
        <polygon class="cls-2" points="21.19 8.41 21.19 .04 16.21 .04 16.21 8.41 7.87 8.41 7.87 13.32 16.21 13.32 16.21 21.69 21.19 21.69 21.19 13.32 29.53 13.32 29.53 8.41 21.19 8.41"/>
        <g>
          <path class="cls-1" d="M1.77,28.09v-1.05H.49v1.05h-.49v-2.6H.49v1.09H1.77v-1.09h.49v2.6h-.49Z"/>
          <path class="cls-1" d="M5.27,26.8c0,.67-.42,1.34-1.33,1.34s-1.34-.66-1.34-1.34,.44-1.37,1.34-1.37,1.34,.69,1.33,1.37Zm-2.19,0c0,.43,.24,.88,.85,.88s.84-.46,.85-.89c0-.44-.24-.93-.85-.93s-.86,.49-.85,.93Z"/>
          <path class="cls-1" d="M7.31,26.11c-.09-.15-.34-.29-.62-.29-.36,0-.54,.15-.54,.34,0,.23,.27,.29,.58,.33,.54,.07,1.05,.21,1.05,.83,0,.58-.51,.83-1.09,.83-.53,0-.94-.16-1.13-.64l.41-.21c.11,.29,.42,.41,.73,.41s.6-.11,.6-.39c0-.25-.26-.34-.6-.38-.53-.06-1.02-.2-1.02-.79,0-.54,.53-.75,1.01-.76,.4,0,.82,.11,1.02,.52l-.39,.2h0Z"/>
          <path class="cls-1" d="M9.38,27.32h-.74v.77h-.49v-2.6c.41,0,.82,0,1.23,0,1.27,0,1.27,1.84,0,1.84h0Zm-.74-.45h.74c.63,0,.62-.92,0-.92h-.74v.92Z"/>
          <path class="cls-1" d="M10.67,28.08v-2.6h.49v2.6s-.49,0-.49,0Z"/>
          <path class="cls-1" d="M12.41,25.93h-.82v-.45h2.14v.45h-.82v2.15h-.49v-2.15Z"/>
          <path class="cls-1" d="M15.87,27.59h-1.36l-.22,.49h-.53l1.17-2.6h.54l1.17,2.6h-.54l-.22-.49h0Zm-.68-1.56l-.48,1.11h.97s-.48-1.11-.48-1.11Z"/>
          <path class="cls-1" d="M17.37,25.49v2.15h1.34v.45h-1.83v-2.6h.49Z"/>
          <path class="cls-1" d="M21.73,26.12c-.17-.17-.43-.26-.66-.26-.56,0-.89,.42-.89,.96,0,.43,.25,.87,.89,.87,.2,0,.38-.05,.59-.21v-.46h-.66v-.44h1.11v1.09c-.26,.29-.58,.47-1.03,.47-.98,0-1.37-.64-1.37-1.33,0-.73,.46-1.41,1.37-1.41,.35,0,.7,.13,.97,.4l-.31,.31h0Z"/>
          <path class="cls-1" d="M24.45,28.08h-1.94v-2.6h1.94v.48h-1.46v.6h1.41v.46h-1.41v.59h1.46v.48h0Z"/>
          <path class="cls-1" d="M27.13,28.08h-.58l-.76-.87h-.47v.87h-.49v-2.6c.41,0,.82,0,1.24,0,.61,0,.94,.41,.94,.86,0,.36-.16,.72-.66,.82l.79,.89v.03h0Zm-1.81-2.14v.83h.75c.31,0,.45-.21,.45-.42s-.14-.42-.45-.42h-.75Z"/>
          <path class="cls-1" d="M29.18,27.59h-1.36l-.22,.49h-.53l1.17-2.6h.54l1.17,2.6h-.54l-.22-.49h0Zm-.68-1.56l-.48,1.11h.97l-.48-1.11Z"/>
          <path class="cls-1" d="M30.68,25.49v2.15h1.34v.45h-1.83v-2.6h.49Z"/>
          <path class="cls-1" d="M33.12,28.08v-2.6h.49v2.6s-.49,0-.49,0Z"/>
          <path class="cls-1" d="M34.85,25.93h-.82v-.45h2.14v.45h-.82v2.15h-.49v-2.15Z"/>
          <path class="cls-1" d="M38.31,27.59h-1.36l-.22,.49h-.53l1.17-2.6h.54l1.17,2.6h-.54l-.22-.49h0Zm-.68-1.56l-.48,1.11h.97l-.48-1.11Z"/>
          <path class="cls-1" d="M41.1,26.12c-.17-.17-.43-.26-.66-.26-.56,0-.89,.42-.89,.96,0,.43,.25,.87,.89,.87,.2,0,.38-.05,.59-.21v-.46h-.66v-.44h1.11v1.09c-.26,.29-.58,.47-1.03,.47-.98,0-1.37-.64-1.37-1.33,0-.73,.46-1.41,1.37-1.41,.35,0,.7,.13,.97,.4l-.31,.31h0Z"/>
          <path class="cls-1" d="M44.16,25.49v1.49c0,.77-.47,1.16-1.13,1.16s-1.16-.38-1.16-1.16v-1.49h.49v1.49c0,.47,.27,.72,.67,.72s.63-.27,.63-.72v-1.49h.49Z"/>
          <path class="cls-1" d="M46.48,27.59h-1.36l-.22,.49h-.53l1.17-2.6h.54l1.17,2.6h-.54l-.22-.49h0Zm-.68-1.56l-.48,1.11h.97l-.48-1.11Z"/>
          <path class="cls-1" d="M47.42,28.08v-2.6h.49v2.6s-.49,0-.49,0Zm.83-3.36h-.54l-.28,.51v.02h.4l.41-.51v-.02h0Z"/>
        </g>
        <g>
          <polygon class="cls-1" points="4.99 .04 0 .04 0 21.69 4.99 21.69 4.99 13.32 7.87 13.32 7.87 8.41 4.99 8.41 4.99 .04"/>
          <rect class="cls-1" x="42.9" width="5" height="21.67"/>
          <path class="cls-1" d="M32.37,8.41h-2.88v4.91h3.1s3.64,0,3.64,0v2.87c-1.23,.93-2.38,1.31-3.94,1.31-4.65,0-6.3-3.15-6.3-6.1,0-4.06,2.53-6.78,6.3-6.78,1.68,0,3.52,.72,4.68,1.84l.4,.39,3.12-3.2-.4-.39C38,1.18,35.23,.04,32.3,.04c-3.45,0-6.33,1.21-8.33,3.49-1.79,2.03-2.77,4.83-2.77,7.88s.93,5.56,2.61,7.43c1.95,2.16,4.89,3.31,8.5,3.31,3.41,0,6.15-1.24,8.37-3.78l.14-.16V8.41h-8.44Z"/>
        </g>
      </g>
    </g>
  </g>
</svg>