<svg width="102" height="84" viewBox="0 0 102 84" fill="none" xmlns="http://www.w3.org/2000/svg">
<circle cx="50.5" cy="42.5" r="41.5" fill="url(#paint0_linear_7_49)"/>
<path d="M66.6443 62.1147C65.541 63.0811 64.859 63.7023 64.1489 64.291C61.2204 66.7108 57.1845 66.4713 54.7494 63.7388C52.2701 60.9576 52.4627 56.7391 55.3231 54.0797C57.9307 51.6558 60.6828 49.3862 63.3386 47.011C64.0607 46.3654 64.6705 45.59 65.517 44.6764C64.165 43.8563 63.0256 43.296 62.0508 42.5245C61.5373 42.1226 60.672 41.0872 60.9516 40.7462C61.8382 39.6645 62.476 40.462 63.0056 40.7543C66.0545 42.4352 68.9671 44.3841 72.0682 45.9594C73.3399 46.605 75.0088 46.9339 76.4089 46.739C81.2391 46.0731 86.0291 45.1149 90.8352 44.2623C93.9965 43.6979 95.7135 41.4648 95.196 38.6024C94.7226 35.9796 92.2193 34.4773 89.1783 35.0173C86.0171 35.5776 82.8518 36.1136 79.7106 36.7591C77.2233 37.2707 75.0048 36.885 72.8143 35.5289C69.2238 33.308 65.5691 31.1764 61.8382 29.2113C60.4661 28.4886 58.8133 28.0542 57.2648 27.9933C53.1246 27.8268 48.9684 27.8146 44.8283 27.9933C43.2196 28.0623 41.5025 28.5373 40.0744 29.2885C36.2832 31.282 32.5804 33.4623 28.9177 35.6954C26.8997 36.9256 24.8457 37.2423 22.5751 36.7997C19.3616 36.1745 16.1322 35.606 12.9107 35.0254C9.76149 34.457 7.23809 35.9958 6.81685 38.7364C6.37155 41.6151 8.06852 43.706 11.314 44.2785C16.1201 45.1271 20.9142 46.069 25.7443 46.7674C27.0281 46.9542 28.5767 46.7024 29.732 46.1096C32.7088 44.583 35.501 42.6951 38.4376 41.0872C39.1637 40.6893 40.7483 40.4336 40.9409 40.7421C41.7753 42.0942 40.2549 42.2972 39.5328 42.8128C38.6743 43.4259 37.7315 43.9131 36.532 44.6318C37.2902 45.4884 37.8278 46.2314 38.4937 46.8283C41.0974 49.1629 43.7531 51.4325 46.3608 53.759C49.4057 56.4711 49.851 60.6369 47.444 63.5439C44.9647 66.5403 40.8125 66.7636 37.6152 64.0636C37.0054 63.548 36.4116 63.0202 35.3886 62.1269C35.3886 64.563 35.3886 66.5362 35.3886 68.5135C35.3886 69.5286 35.501 70.5639 35.3365 71.5505C35.2522 72.0743 34.6866 72.5168 34.3416 73C34.0166 72.4965 33.4309 72.0053 33.4068 71.4896C33.3025 69.1916 33.138 66.8611 33.4148 64.5955C33.796 61.4286 32.785 59.1874 30.1693 57.4456C28.7291 56.4874 27.4453 55.2531 26.2298 53.9985C25.3592 53.1012 24.268 52.0456 24.0875 50.929C23.7184 48.6594 22.3664 48.2859 20.5331 48.0139C17.1632 47.5185 13.8094 46.8689 10.4595 46.2477C6.63633 45.5372 4.25735 42.3824 4.73074 38.7283C5.22418 34.928 8.34534 32.4066 12.2969 32.8817C15.3459 33.2471 18.4309 33.6612 21.3635 34.5301C25.299 35.6954 28.1835 33.9495 31.2324 31.7408C29.4352 29.6173 27.2889 28.3506 24.613 28.3018C20.0677 28.2206 15.5144 28.1597 10.973 28.3018C5.89014 28.4602 2.13112 32.5163 2.11507 37.7011C2.08298 48.6635 2.10705 36.8134 2.10303 47.7798C2.10303 48.3198 2.1953 48.9086 2.01478 49.3836C1.8864 49.7246 1.39295 50.0698 1.02387 50.1225C0.775141 50.1591 0.281694 49.7368 0.201459 49.4364C0.045 48.8639 0.0811058 48.2346 0.0811058 47.6255C0.0730823 37.4062 0.253612 49.9952 0.0088941 39.7839C-0.139541 33.6247 1.50929 28.6997 9.54886 26.1215C7.61921 23.994 5.84601 22.102 4.84708 20.0354C2.07896 14.3187 3.19824 8.73192 7.64328 4.29418C12.8746 -0.927171 21.3555 -1.04898 26.7112 4.02215C32.9535 9.93373 32.44 17.7414 25.5518 25.679C28.1394 27.1569 30.8032 28.6794 33.7398 30.3563C36.4678 28.9352 39.7133 27.2462 43.0551 25.5085C38.7625 22.1548 36.5721 17.5059 37.4346 11.6633C37.9722 8.02546 39.8016 5.08997 42.678 2.84065C48.3988 -1.62958 56.7874 -0.724163 61.5012 4.85448C66.7405 11.0584 65.7256 19.13 59.0019 25.5288C62.2273 27.1934 65.5009 28.8824 68.3613 30.3563C71.2016 28.716 73.8574 27.1772 76.5533 25.6221C72.6499 22.5242 70.4514 18.1474 71.0612 12.5769C71.4544 8.98771 73.0551 6.01162 75.751 3.66486C81.2832 -1.15048 89.6036 -0.752585 94.6584 4.53373C100.463 10.6077 99.6851 18.4154 92.4319 26.1621C93.0136 26.357 93.5511 26.5316 94.0887 26.7103C99.0513 28.3993 101.96 32.4432 101.964 37.7173C101.972 48.6797 101.964 36.8296 101.964 47.7961C101.964 48.2711 102.08 48.807 101.896 49.1968C101.703 49.5988 101.254 50.0048 100.837 50.1185C100.64 50.1713 100.118 49.5988 100.002 49.2252C99.8456 48.7299 99.9339 48.1534 99.9339 47.6134C99.9339 36.9189 99.9339 49.0411 99.9339 38.3466C99.9339 32.0981 96.1307 28.2734 89.9125 28.2531C86.0331 28.2409 82.1537 28.2531 78.2744 28.245C75.3057 28.245 72.8384 29.3128 70.8285 31.7448C73.8133 33.8521 76.5934 35.7035 80.4688 34.5504C83.273 33.7181 86.2297 33.3567 89.1342 32.9223C94.3816 32.1387 98.3613 36.2029 97.1858 41.1116C96.5038 43.9578 94.6303 45.663 91.81 46.203C88.0029 46.9339 84.1837 47.62 80.3565 48.225C79.1529 48.4158 78.5873 48.8096 78.2142 50.1089C77.825 51.4609 76.9545 52.8008 75.9636 53.8117C74.0861 55.7281 71.8997 57.336 69.9941 59.228C69.3321 59.8857 68.8026 60.9941 68.7544 61.9239C68.602 64.9609 68.7544 68.0141 68.6542 71.0552C68.6341 71.7089 68.0604 72.3423 67.7435 72.9838C67.3864 72.3138 66.7486 71.6602 66.7165 70.978C66.5961 68.2212 66.6683 65.4562 66.6683 62.1066L66.6443 62.1147ZM39.3041 13.9086C39.284 20.482 44.4993 25.8292 50.9623 25.8576C57.4132 25.8901 62.6967 20.5754 62.7288 14.0142C62.7649 7.45704 57.5376 2.09764 51.0706 2.0611C44.6237 2.02456 39.3242 7.35959 39.3041 13.9046V13.9086ZM29.0139 14.2781C29.026 7.71688 23.7986 2.39403 17.3277 2.36967C10.8687 2.34531 5.61734 7.65598 5.59728 14.2253C5.57722 20.8109 10.7725 26.0972 17.2755 26.1094C23.7786 26.1215 29.0019 20.8596 29.0139 14.2781ZM96.4396 14.3633C96.4918 7.80621 91.2845 2.42651 84.8296 2.37373C78.3506 2.32095 73.0711 7.57478 73.0069 14.1441C72.9427 20.7215 78.1139 26.0566 84.6089 26.1134C91.112 26.1703 96.3875 20.9327 96.4396 14.3674V14.3633ZM67.246 46.069C65.9422 47.3155 64.5702 48.6838 63.138 49.979C61.096 51.8223 58.9778 53.5844 56.9478 55.4399C54.7373 57.4618 54.4886 60.243 56.2538 62.2812C57.9949 64.2829 60.8071 64.4006 63.0417 62.4639C66.893 59.1224 70.7282 55.7566 74.4993 52.3217C75.3337 51.5624 75.8633 50.4662 76.3046 49.849C73.1233 48.5214 70.2268 47.3155 67.242 46.069H67.246ZM25.7764 49.849C26.1054 50.3525 26.5467 51.4406 27.321 52.1511C31.1923 55.6754 35.1279 59.1305 39.1035 62.5329C39.8256 63.1501 40.8246 63.617 41.7553 63.7794C43.7852 64.1286 45.6547 62.9877 46.4892 61.1484C47.3677 59.2158 46.8944 57.0923 45.1091 55.4805C41.5908 52.3014 38.0364 49.1669 34.6184 46.1259C31.8302 47.2993 28.9337 48.5214 25.7684 49.8531L25.7764 49.849Z" fill="#9B505F"/>
<defs>
<linearGradient id="paint0_linear_7_49" x1="50.5" y1="1" x2="50.5" y2="84" gradientUnits="userSpaceOnUse">
<stop stop-color="white" stop-opacity="0"/>
<stop offset="1" stop-color="#E4B8C2"/>
</linearGradient>
</defs>
</svg>
