<svg width="25" height="25" viewBox="0 0 25 25" fill="none" xmlns="http://www.w3.org/2000/svg">
<g clip-path="url(#clip0_3_28)">
<path d="M0.0299683 12.4675C0.0443915 11.4283 0.407747 10.5281 1.14638 9.78571C2.06809 8.85941 2.99422 7.93754 3.9162 7.01151C3.9836 6.94382 4.04296 6.90415 4.14309 6.9355C4.20245 6.95409 4.27096 6.94687 4.33531 6.94715C4.8662 6.94965 5.39708 6.94188 5.92769 6.95547C6.61002 6.97295 7.18668 7.24621 7.6668 7.72587C8.89528 8.9529 10.1224 10.181 11.3497 11.4089C12.1103 12.1696 13.2009 12.1724 13.9667 11.41C14.8959 10.4848 15.8215 9.55573 16.7487 8.62859C17.0525 8.32482 17.3553 8.02049 17.6596 7.71782C18.1617 7.21847 18.7713 6.97156 19.4756 6.95964C19.9002 6.95242 20.3276 6.98571 20.7487 6.94743C20.9792 6.92635 21.0971 7.02206 21.2352 7.1616C22.1483 8.08346 23.0867 8.98092 23.9778 9.92331C25.3505 11.375 25.2915 13.7212 23.8797 15.1352C22.9499 16.0665 22.0185 16.9961 21.0893 17.9283C21.0261 17.9918 20.9739 18.0242 20.8749 17.9968C20.78 17.9707 20.6733 17.989 20.5717 17.9865C20.1013 17.9751 19.6295 18.0179 19.1605 17.9613C18.5824 17.8916 18.0832 17.65 17.6707 17.238C16.4486 16.0179 15.2265 14.7978 14.0086 13.5736C13.673 13.2363 13.2836 13.0271 12.8045 12.9932C12.2542 12.9544 11.7738 13.1131 11.3811 13.5048C10.1518 14.7307 8.92357 15.958 7.6987 17.1881C7.15949 17.7296 6.51544 18.0037 5.75045 17.9976C5.27504 17.9937 4.79935 17.9971 4.32394 17.9971C4.2962 17.9971 4.26541 17.989 4.24128 17.9984C4.04379 18.0739 3.93285 17.9518 3.80969 17.8278C2.9246 16.9368 2.03369 16.0515 1.14777 15.1613C0.409688 14.4186 0.0449463 13.5192 0.0299683 12.4675Z" fill="#69313F"/>
<path d="M5.09976 5.81696C5.22264 5.69851 5.34745 5.58199 5.46811 5.46131C6.92125 4.00902 8.37356 2.5559 9.82643 1.10305C11.2957 -0.366164 13.703 -0.367829 15.1719 1.10028C16.7199 2.64717 18.2665 4.19545 19.8148 5.74206C19.8492 5.77646 19.8955 5.79921 19.9363 5.82751C19.926 5.84221 19.9155 5.85691 19.9052 5.87162C19.7505 5.87162 19.5957 5.87023 19.4409 5.87162C18.4574 5.88077 17.6103 6.23282 16.9141 6.92137C15.6764 8.14535 14.4507 9.38125 13.2203 10.6122C12.8536 10.9789 12.4614 10.9806 12.0973 10.6163C10.8599 9.37903 9.62672 8.13786 8.3841 6.90556C7.68374 6.21118 6.82944 5.86773 5.84367 5.85414C5.60097 5.85081 5.35827 5.85358 5.11557 5.85358C5.11058 5.84138 5.10531 5.82917 5.10032 5.81696H5.09976Z" fill="#69313F"/>
<path d="M19.9071 19.0732C19.901 19.1375 19.8553 19.1592 19.825 19.1897C18.2684 20.7482 16.7124 22.307 15.153 23.8631C13.7162 25.2968 11.3062 25.3082 9.86717 23.8797C8.29726 22.3215 6.73788 20.7527 5.17407 19.1883C5.15132 19.1655 5.13024 19.1411 5.10278 19.1115C5.15632 19.0765 5.21207 19.0923 5.2631 19.092C5.74268 19.0904 6.22253 19.1084 6.69461 18.9877C7.33007 18.8254 7.89146 18.5297 8.35634 18.0675C9.60395 16.8269 10.8516 15.5863 12.0856 14.3323C12.4073 14.0053 12.9019 13.9983 13.2317 14.3351C14.4016 15.5291 15.5974 16.6976 16.7704 17.8883C17.5614 18.6914 18.5 19.1084 19.632 19.0737C19.7227 19.0709 19.8134 19.0734 19.9071 19.0734V19.0732Z" fill="#69313F"/>
</g>
<defs>
<clipPath id="clip0_3_28">
<rect width="24.9442" height="24.9442" fill="white" transform="translate(0.0299683)"/>
</clipPath>
</defs>
</svg>
