<?xml version="1.0" encoding="UTF-8"?>
<svg id="Layer_2" data-name="Layer 2" xmlns="http://www.w3.org/2000/svg" viewBox="0 0 151 53.86">
  <defs>
    <style>
      .cls-1, .cls-2 {
        fill: #fff;
      }

      .cls-2, .cls-3 {
        fill-rule: evenodd;
      }

      .cls-3 {
        fill: #e0234e;
      }
    </style>
  </defs>
  <g id="Camada_1" data-name="Camada 1">
    <g>
      <g>
        <path class="cls-3" d="M44.11,6.66c-3.19,0-5.77,2.58-5.77,5.77s2.58,5.77,5.77,5.77,5.77-2.58,5.77-5.77-2.58-5.77-5.77-5.77"/>
        <path class="cls-3" d="M11.89,36.79s4.77,4.64,11.25-3.27c13.34-16.29,22.23-15.21,26.66-11.25,9.54,8.55-7.33,25.03-15.81,28.23-4.35,1.64-8.37,.04-11.39-3.14,0,0,5.22,3.38,9.51,1.57,8.31-3.51,12.86-10.88,12.86-15.39,0-3.22-2.18-6.32-5.12-7.19-5.61-1.65-11.8,9.2-17.44,12.02-3.22,1.61-5.41,1.58-7.25,.97-1.84-.61-3.27-2.56-3.27-2.56"/>
        <path class="cls-3" d="M49.92,36.43s-5.8,5.82-13.68-4.11C20.03,11.87,9.22,13.22,3.84,18.2-.1,21.84-1.15,27.27,1.34,32.38c4.67,9.58,23.6,30.31,35.56,17.31,0,0-6.35,4.25-11.56,1.97-10.1-4.41-15.63-13.65-15.63-19.31,0-4.04,2.64-7.94,6.22-9.02,6.82-2.07,14.34,11.55,21.2,15.09,3.92,2.02,6.57,1.99,8.81,1.22,2.24-.77,3.98-3.21,3.98-3.21"/>
        <path class="cls-3" d="M24.19,0c4.47,0,8.09,3.62,8.09,8.09s-3.62,8.09-8.09,8.09-8.09-3.62-8.09-8.09S19.72,0,24.19,0"/>
      </g>
      <g>
        <rect class="cls-1" x="57.74" y="15.46" width="7.78" height="32.51"/>
        <path class="cls-2" d="M86.94,15.57v6.47s-2.47-2.03-6.29-1.86c-3.82,.18-6.87,4.45-1.58,7.22,5.29,2.77,9.04,4.94,9.74,8.09,.7,3.15,.74,8.09-3.19,10.65-3.92,2.56-9.49,2.42-12.54,1.89-3.05-.53-3.68-.88-3.68-.88v-6.41s4.52,3.05,8.72,2.31c4.2-.74,5.5-5.43,.18-8.37-5.32-2.94-8.41-3.99-9.35-9.28-.95-5.29,2.84-8.86,6.79-9.98,3.42-.97,7.69-.58,11.2,.15"/>
        <path class="cls-2" d="M100.4,33.97v8.76h3.46c1.9,0,3.46-1.56,3.46-3.46v-1.84c0-1.9-1.56-3.46-3.46-3.46h-3.46Zm0-13.24v7.99h3.15c1.73,0,3.15-1.42,3.15-3.15v-1.68c0-1.73-1.42-3.15-3.15-3.15h-3.15Zm-7.78-5.27h13s8.13,.03,8.23,6.27c.03,1.68-.1,3.31-.2,4.25-.18,1.66-1.12,3.12-3.48,4.23-1.79,.84-2.24,.84-2.24,.84,0,0,3.15,.47,4.75,1.96,1.65,1.54,1.81,3.42,1.86,4.5,.02,.44,0,.92,0,1.44,0,.46,0,.24-.01,.67-.07,2.79-.55,5.49-4.04,6.97-4.36,1.86-6.28,1.4-10.79,1.4v-.02h-7.08V15.46Z"/>
        <polygon class="cls-2" points="144.49 15.46 151 15.46 151 21.85 151 47.97 144.49 47.97 144.49 21.85 143.76 21.85 136.78 47.91 131.94 47.91 124.62 21.85 124.31 21.85 124.31 47.97 117.79 47.97 117.79 21.85 117.79 15.46 124.31 15.46 128.44 15.46 130.33 21.85 130.32 21.85 134.26 37.62 138.5 21.85 138.46 21.85 138.88 20.44 138.88 20.44 138.88 20.44 140.35 15.46 144.49 15.46"/>
      </g>
    </g>
  </g>
</svg>