<?xml version="1.0" encoding="UTF-8"?>
<svg id="Layer_2" data-name="Layer 2" xmlns="http://www.w3.org/2000/svg" viewBox="0 0 97.18 27.53">
  <defs>
    <style>
      .cls-1 {
        fill: #93959e;
      }

      .cls-2 {
        fill: #363e52;
      }
    </style>
  </defs>
  <g id="Camada_1" data-name="Camada 1">
    <g>
      <g>
        <path class="cls-2" d="M73.85,14.04c.25,0,.46,.42,.27,.76-1.27,2.65-5.49,6.95-9.23,6.95-.84,0-1.66-.23-2.41-.72-1.79-1.19-2.17-3.45-2.09-5.45,.2-4.71,2.31-9.62,5.71-12.93,1.34-1.3,3.25-2.65,5.21-2.65,1.19,0,2.25,.59,2.56,1.86,.33,1.4-.25,3-.88,4.24-.62,1.22-1.51,2.64-2.8,3.21-.05,.03-.11,.03-.16,.03-.48,0-1.03-.84-.51-1.08,1.61-.71,3.06-3.63,3.32-5.38,.07-.44,.16-1.18-.17-1.55-.19-.2-.48-.25-.79-.25-.92,0-1.85,.33-2.64,.78-3.22,1.77-5.69,5.82-6.82,9.21-.7,2.06-1.2,4.46-.91,6.62,.24,1.74,1.22,2.9,2.96,2.9,.08,0,.16-.01,.24-.01,3.63-.23,7.11-3.31,8.86-6.32,.09-.15,.19-.21,.29-.21Z"/>
        <path class="cls-2" d="M73.06,15.05c.56-1.14,1.75-2.5,3.06-2.73,.11-.03,.23-.03,.33-.03,.54,0,1.07,.23,1.39,.68,.01,.01,.03,.04,.04,.05,.05-.08,.11-.17,.16-.25,.21-.33,.5-.71,.83-.71,.15,0,.31,.07,.48,.25,.42,.44,.15,1.03-.01,1.53-.33,.96-1.02,2.45-.98,3.47,.01,.28,.11,.54,.33,.54,.5,0,1.17-.36,1.46-.52,1.02-.56,2.15-1.75,2.84-2.68,.08-.12,.19-.17,.27-.17,.23,0,.4,.31,.23,.63-.64,1.23-2.74,3.8-4.48,3.8-.39,0-.76-.13-1.1-.43-.6-.54-.7-1.34-.56-2.18-.62,.95-1.71,2.45-2.9,2.45-.09,0-.19,0-.29-.03-1.71-.32-1.7-2.44-1.1-3.67Zm1.07,2.62h.08c.19-.03,.39-.15,.55-.25,1.04-.7,1.73-1.85,2.36-3.01v-.11c.03-.23,.12-.79-.05-.94-.04-.03-.09-.04-.16-.04-.21,0-.55,.13-.67,.19-1.15,.52-2.5,2.15-2.54,3.44-.01,.36,.04,.72,.44,.72Z"/>
        <path class="cls-2" d="M82.86,19.4c-.35,0-.83-.5-.76-.82,.51-2.36,1.03-4.7,1.54-7.04,.04-.2,.17-.29,.32-.29,.33,0,.82,.44,.74,.8-.19,.84-.36,1.67-.55,2.52,.55-.76,1.5-1.85,2.48-1.85,1.19,0,1.71,1.5,1.83,2.46,.04,.29-.09,.42-.28,.42-.29,0-.72-.32-.78-.66-.03-.21-.17-1.12-.44-1.12-.07,0-.16,.04-.31,.09-1.47,.62-2.97,3.89-3.52,5.29-.05,.15-.16,.2-.27,.2Z"/>
        <path class="cls-2" d="M89.38,15.2c.42-1.41,1.79-2.89,3.35-2.89,1.07,0,1.91,.91,1.54,2.06-.35,1.04-1.65,2.05-2.84,2.05-.39,0-.76-.11-1.08-.35-.08,.33-.12,.7-.09,1.03,.09,.8,.71,1.02,1.39,1.02,2.18,0,4.28-1.5,5.19-3.44,.07-.15,.12-.2,.17-.2,.15,0,.23,.5,.11,.87-.62,1.9-2.68,3.87-5.11,3.87-.95,0-1.87-.38-2.41-1.21-.52-.83-.48-1.89-.21-2.81Zm1.34,.05c.09,.08,.21,.11,.35,.11,.82,0,2.22-1.07,2.22-1.97-.07-.01-.13-.01-.2-.01-.96,0-1.98,1.02-2.42,1.83,.03,.01,.04,.03,.05,.04Z"/>
      </g>
      <path class="cls-1" d="M11.62,20.44q-1.36,0-1.49,1.39c-.07,.72-.46,1.09-1.18,1.1-.49,0-.99,0-1.48,0-.78-.01-1.15-.37-1.19-1.13-.08-1.36-.08-1.34-1.49-1.36-.61,0-1.25,.15-1.78-.36-.33-.32-.52-.68-.51-1.15,.01-.53,0-1.06,0-1.59,0-.45-.19-.72-.69-.68-.21,.02-.42,0-.63,0-.76-.02-1.16-.41-1.17-1.15,0-.53-.01-1.06,0-1.59,.02-.65,.41-1.05,1.06-1.09,1.43-.09,1.49-.09,1.42-1.49-.1-1.94,.63-2.43,2.31-2.31,.06,0,.11,0,.17,0,1.09,0,1.36,.2,1.31-1.25-.03-.82,.41-1.22,1.22-1.23,.49,0,.99,0,1.48,0,.72,.01,1.12,.41,1.15,1.12,.06,1.36,.06,1.42,1.42,1.35,2.04-.1,2.49,.65,2.37,2.38-.01,.15,.01,.3,0,.45-.11,1.04,.49,1.14,1.21,1.06,.79-.09,1.24,.26,1.27,1.07,.02,.47,0,.95,0,1.42-.01,.85-.4,1.25-1.24,1.28q-1.25,.05-1.25,1.29c0,.27,0,.53,0,.8-.01,1.1-.59,1.68-1.68,1.69-.21,0-.42,0-.63,0m-3.42-.02c.36,0,.72,0,1.08,0,.49-.01,.79-.22,.76-.77-.02-.34-.01-.68,0-1.02,.03-1.23,.75-1.97,1.97-2.02,.34-.02,.68,0,1.02,0,.6-.02,.86-.27,.87-.86,.01-.68,.01-1.37,0-2.05,0-.57-.26-.8-.85-.82-.45-.02-.91,0-1.36-.05-.88-.09-1.45-.65-1.57-1.53-.06-.45-.03-.91-.04-1.36-.02-.64-.23-.86-.85-.87-.68,0-1.37,0-2.05,0-.57,0-.84,.26-.88,.82-.02,.42,0,.83,0,1.25-.02,.9-.63,1.59-1.52,1.69-.47,.05-.95,.04-1.42,.06-.6,.02-.83,.24-.83,.83,0,.68,0,1.37,0,2.05,0,.62,.23,.84,.87,.85,.44,.01,.88-.01,1.31,.04,.99,.12,1.59,.8,1.6,1.79,0,.4-.01,.8,0,1.2,.02,.52,.28,.8,.82,.8,.36,0,.72,0,1.08,0"/>
      <path class="cls-2" d="M28.62,16.72c0-1.63,.01-3.26,0-4.89,0-.36,.11-.53,.45-.64,1.36-.45,2.74-.75,4.18-.68,2.46,.11,4.01,1.85,3.86,4.3-.18,2.88-2.22,4.52-5.1,4.09q-.91-.13-.91,.79c0,.66-.03,1.33,.01,1.99,.03,.45-.17,.55-.55,.55-.45,0-.91,0-1.36,.04-.43,.04-.59-.07-.58-.55,.03-1.67,.01-3.33,.01-5m2.47-2.01c0,.4,0,.8,0,1.19,.02,1.1-.21,.85,.96,1.08,.18,.04,.38,.02,.57,.02,.99,0,1.68-.52,1.89-1.48,.39-1.81-.19-3.45-2.66-2.98-.13,.02-.26,.04-.39,.06-.27,.03-.38,.16-.37,.45,.02,.55,0,1.1,0,1.65"/>
      <path class="cls-2" d="M49.35,15.69c0,.78,0,1.56,0,2.33,0,.24-.06,.39-.31,.45-1.85,.47-3.72,.75-5.62,.35-1.51-.31-2.26-1.24-2.18-2.66,.05-.89,.49-1.53,1.3-1.91,1.15-.55,2.36-.47,3.57-.39,.25,.02,.64,.15,.73-.1,.11-.38-.02-.8-.41-1.04-.35-.21-.75-.25-1.15-.27-.86-.05-1.71,.07-2.54,.27-.36,.09-.42-.03-.47-.33-.26-1.51-.26-1.51,1.27-1.75,1.13-.17,2.26-.24,3.39-.03,1.52,.29,2.31,1.17,2.39,2.73,.04,.78,.02,2.33,.02,2.33m-3.73,1.52c.41-.03,.65-.06,.9-.07,.25,0,.39-.08,.37-.36-.02-.34,0-.68,0-1.02,0-.17-.08-.23-.24-.24-.75-.08-1.5-.2-2.25,0-.4,.11-.69,.33-.7,.77,0,.48,.31,.72,.73,.8,.44,.09,.89,.15,1.19,.11"/>
      <path class="cls-2" d="M23.39,18.95c-2.26,0-3.86-1.09-4.39-2.97-.77-2.78,1.05-5.31,3.93-5.46,1.65-.09,3.16,.23,4.2,1.64,1.02,1.39,1.12,2.93,.41,4.46-.69,1.48-1.97,2.2-3.58,2.33-.19,.02-.38,0-.57,0m.02-1.92c1.25,0,2.07-.9,2.07-2.27,0-1.38-.81-2.29-2.05-2.3-1.26-.01-2.11,.92-2.1,2.31,0,1.34,.85,2.26,2.08,2.26"/>
      <path class="cls-2" d="M50.47,15.06c0-1.08,0-2.16,0-3.24,0-.22,0-.39,.26-.49,1.82-.68,3.68-1.07,5.62-.69,1.37,.27,2.17,1.25,2.2,2.65,.03,1.69,0,3.38,.02,5.06,0,.3-.09,.39-.39,.38-.57-.02-1.14-.02-1.71,0-.34,.01-.41-.12-.41-.43,.01-1.4,0-2.81,0-4.21,0-1.42-.32-1.72-1.72-1.64q-1.39,.08-1.39,1.47c0,1.44-.01,2.88,0,4.32,0,.36-.08,.51-.47,.49-.55-.03-1.1-.02-1.65,0-.3,.01-.39-.09-.38-.39,.02-1.1,0-2.2,0-3.3"/>
      <path class="cls-2" d="M40.32,12.62c0,1.84-.02,3.68,.01,5.51,.01,.53-.16,.65-.64,.61-.49-.04-.99-.02-1.48,0-.29,.01-.39-.06-.39-.37,0-3.77,0-7.54,0-11.31,0-.29,.08-.4,.38-.4,.55,0,1.1-.04,1.64-.11,.38-.05,.49,.07,.48,.45-.02,1.88,0,3.75,0,5.63"/>
      <g>
        <path class="cls-1" d="M19.59,24.73v1.72c0,.19,.05,.33,.15,.43,.1,.1,.24,.15,.41,.15s.32-.05,.42-.15c.1-.1,.15-.24,.15-.43v-1.72h.56v1.71c0,.24-.05,.44-.15,.6-.1,.16-.24,.29-.41,.37-.17,.08-.36,.12-.57,.12s-.39-.04-.56-.12c-.17-.08-.3-.2-.4-.37-.1-.16-.15-.36-.15-.6v-1.71h.56Z"/>
        <path class="cls-1" d="M24.59,27.51h-.56l-1.26-1.9v1.9h-.56v-2.78h.56l1.26,1.91v-1.91h.56v2.78Z"/>
        <path class="cls-1" d="M26.09,24.73v2.78h-.56v-2.78h.56Z"/>
        <path class="cls-1" d="M28.78,24.9c.22,.11,.39,.28,.51,.49,.12,.21,.18,.46,.18,.73s-.06,.52-.18,.73c-.12,.21-.29,.37-.51,.48s-.48,.17-.77,.17h-.97v-2.78h.97c.29,0,.55,.06,.77,.17Zm-.11,1.89c.16-.16,.24-.38,.24-.67s-.08-.52-.24-.68-.38-.24-.68-.24h-.39v1.83h.39c.29,0,.52-.08,.68-.24Z"/>
        <path class="cls-1" d="M31.99,26.98h-1.11l-.18,.53h-.58l1-2.78h.65l1,2.78h-.59l-.18-.53Zm-.15-.45l-.4-1.16-.4,1.16h.8Z"/>
        <path class="cls-1" d="M35.27,24.9c.22,.11,.39,.28,.51,.49,.12,.21,.18,.46,.18,.73s-.06,.52-.18,.73c-.12,.21-.29,.37-.51,.48s-.48,.17-.77,.17h-.97v-2.78h.97c.29,0,.55,.06,.77,.17Zm-.11,1.89c.16-.16,.24-.38,.24-.67s-.08-.52-.24-.68-.38-.24-.68-.24h-.39v1.83h.39c.29,0,.52-.08,.68-.24Z"/>
        <path class="cls-1" d="M37.34,25.18v.7h.93v.44h-.93v.74h1.05v.45h-1.61v-2.78h1.61v.45h-1.05Z"/>
        <path class="cls-1" d="M40.69,25.38c.12-.22,.29-.38,.51-.51,.21-.12,.45-.18,.72-.18,.31,0,.58,.08,.82,.24s.4,.38,.49,.66h-.64c-.06-.13-.15-.23-.27-.3-.12-.07-.25-.1-.4-.1-.16,0-.31,.04-.43,.11-.13,.08-.22,.18-.29,.32-.07,.14-.11,.3-.11,.49s.04,.34,.11,.48c.07,.14,.17,.25,.29,.32,.13,.08,.27,.11,.43,.11,.15,0,.28-.03,.4-.1,.12-.07,.2-.17,.27-.3h.64c-.09,.28-.26,.5-.49,.66-.23,.16-.5,.24-.82,.24-.27,0-.5-.06-.72-.18-.21-.12-.38-.29-.51-.5-.12-.21-.18-.46-.18-.73s.06-.52,.18-.73Z"/>
        <path class="cls-1" d="M44.65,27.07h.91v.44h-1.47v-2.78h.56v2.33Z"/>
        <path class="cls-1" d="M47.02,24.15l-.91,.42v-.4l.91-.47v.45Zm-.15,.58v2.78h-.56v-2.78h.56Z"/>
        <path class="cls-1" d="M50.19,27.51h-.56l-1.26-1.9v1.9h-.56v-2.78h.56l1.26,1.91v-1.91h.56v2.78Z"/>
        <path class="cls-1" d="M51.69,24.73v2.78h-.56v-2.78h.56Z"/>
        <path class="cls-1" d="M52.69,25.38c.12-.22,.29-.38,.51-.51,.21-.12,.45-.18,.72-.18,.31,0,.58,.08,.82,.24s.4,.38,.49,.66h-.64c-.06-.13-.15-.23-.27-.3-.12-.07-.25-.1-.4-.1-.16,0-.31,.04-.43,.11-.13,.08-.22,.18-.29,.32-.07,.14-.11,.3-.11,.49s.04,.34,.11,.48c.07,.14,.17,.25,.29,.32,.13,.08,.27,.11,.43,.11,.15,0,.28-.03,.4-.1,.12-.07,.2-.17,.27-.3h.64c-.09,.28-.26,.5-.49,.66-.23,.16-.5,.24-.82,.24-.27,0-.5-.06-.72-.18-.21-.12-.38-.29-.51-.5-.12-.21-.18-.46-.18-.73s.06-.52,.18-.73Z"/>
        <path class="cls-1" d="M57.79,26.98h-1.11l-.18,.53h-.58l1-2.78h.65l1,2.78h-.59l-.18-.53Zm-.15-.45l-.4-1.16-.4,1.16h.8Z"/>
      </g>
    </g>
  </g>
</svg>