<?xml version="1.0" encoding="UTF-8"?>
<svg id="Layer_2" data-name="Layer 2" xmlns="http://www.w3.org/2000/svg" viewBox="0 0 64.1 21.83">
  <defs>
    <style>
      .cls-1 {
        fill: #93959e;
      }

      .cls-2 {
        fill: #363e52;
      }
    </style>
  </defs>
  <g id="Camada_1" data-name="Camada 1">
    <g>
      <g>
        <path class="cls-1" d="M12.72,15.23q-1.49,0-1.63,1.52c-.07,.78-.51,1.19-1.3,1.2-.54,0-1.08,0-1.62,0-.85-.01-1.26-.41-1.31-1.24-.09-1.48-.09-1.47-1.63-1.49-.67,0-1.37,.16-1.94-.39-.36-.35-.57-.75-.56-1.26,.01-.58,0-1.16,0-1.74,0-.5-.21-.79-.76-.75-.23,.02-.46,0-.68,0-.83-.02-1.27-.45-1.28-1.26,0-.58-.01-1.16,0-1.74,.02-.72,.45-1.15,1.16-1.2,1.56-.09,1.63-.1,1.55-1.63-.11-2.12,.68-2.66,2.53-2.52,.06,0,.12,0,.19,0,1.2,0,1.49,.21,1.43-1.37C6.84,.46,7.32,.02,8.21,0c.54,0,1.08,0,1.62,0,.79,.01,1.23,.44,1.26,1.23,.06,1.49,.06,1.55,1.56,1.48,2.23-.11,2.73,.71,2.6,2.6-.01,.17,.01,.33,0,.5-.12,1.14,.54,1.25,1.33,1.16,.87-.09,1.36,.29,1.4,1.17,.02,.52,.01,1.04,0,1.56-.01,.94-.44,1.37-1.36,1.4q-1.36,.05-1.36,1.41c0,.29,0,.58,0,.87-.01,1.2-.65,1.84-1.84,1.85-.23,0-.46,0-.69,0Zm-3.75-.03c.39,0,.79,0,1.18,0,.54-.02,.86-.25,.83-.84-.02-.37-.01-.75,0-1.12,.03-1.34,.82-2.15,2.16-2.21,.37-.02,.75,0,1.12,0,.66-.02,.94-.29,.96-.95,.01-.75,.01-1.49,0-2.24-.01-.63-.28-.87-.93-.9-.5-.02-1,0-1.49-.06-.96-.1-1.59-.71-1.71-1.68-.06-.49-.04-.99-.05-1.49-.02-.7-.25-.95-.93-.95-.75,0-1.5,0-2.24,0-.62,0-.92,.28-.96,.9-.03,.46,0,.91,0,1.37-.02,.98-.69,1.74-1.67,1.85-.51,.06-1.04,.05-1.55,.06-.65,.02-.9,.26-.91,.91,0,.75,0,1.49,0,2.24,0,.68,.25,.92,.95,.94,.48,.01,.96-.01,1.43,.04,1.09,.13,1.74,.88,1.75,1.96,0,.44-.01,.87,0,1.31,.02,.57,.31,.88,.9,.87,.39,0,.79,0,1.18,0Z"/>
        <path class="cls-2" d="M31.32,11.16c0-1.78,.01-3.57-.01-5.35,0-.4,.12-.58,.5-.71,1.49-.49,3-.82,4.57-.75,2.69,.12,4.39,2.02,4.22,4.71-.2,3.15-2.43,4.95-5.58,4.48q-.99-.15-.99,.87c0,.73-.04,1.45,.01,2.18,.03,.5-.19,.6-.6,.6-.5,0-1,0-1.49,.04-.47,.04-.64-.08-.63-.6,.04-1.82,.01-3.65,.01-5.47Zm2.7-2.2c0,.44,0,.87,0,1.31,.02,1.2-.23,.93,1.05,1.18,.2,.04,.41,.03,.62,.02,1.08,0,1.84-.57,2.07-1.62,.43-1.98-.2-3.77-2.91-3.26-.14,.03-.29,.05-.43,.07-.29,.04-.42,.17-.4,.49,.03,.6,0,1.2,0,1.8Z"/>
        <path class="cls-2" d="M54.01,10.03c0,.85,0,1.7,0,2.55,0,.27-.06,.42-.34,.49-2.03,.51-4.07,.82-6.15,.39-1.65-.34-2.47-1.35-2.38-2.91,.05-.98,.54-1.67,1.42-2.1,1.25-.6,2.58-.52,3.91-.42,.27,.02,.68,.29,.8-.11,.12-.42-.02-.88-.45-1.13-.38-.23-.82-.27-1.26-.29-.94-.05-1.87,.07-2.78,.29-.39,.1-.46-.03-.51-.36-.28-1.65-.29-1.65,1.39-1.91,1.24-.19,2.47-.27,3.72-.03,1.66,.31,2.53,1.28,2.61,2.99,.04,.85,0,1.7,0,2.55h.02Zm-4.09,1.66c.45-.04,.72-.07,.98-.07,.27,0,.42-.08,.41-.39-.02-.37,0-.74,0-1.12,0-.18-.08-.25-.26-.27-.82-.09-1.64-.22-2.46,0-.44,.12-.76,.36-.77,.85,0,.52,.33,.79,.8,.88,.48,.1,.98,.16,1.3,.12Z"/>
        <path class="cls-2" d="M25.6,13.6c-2.47,0-4.23-1.19-4.8-3.25-.85-3.04,1.15-5.81,4.3-5.98,1.81-.1,3.46,.25,4.6,1.8,1.12,1.52,1.23,3.21,.45,4.89-.76,1.62-2.16,2.4-3.92,2.55-.21,.02-.41,0-.62,0Zm.02-2.11c1.36,0,2.27-.99,2.26-2.49,0-1.51-.89-2.5-2.24-2.52-1.38-.02-2.31,1-2.3,2.52,0,1.47,.93,2.48,2.28,2.48Z"/>
        <path class="cls-2" d="M55.24,9.34c0-1.18,0-2.37,0-3.55,0-.24,0-.43,.29-.53,1.99-.75,4.03-1.17,6.15-.75,1.5,.3,2.38,1.37,2.4,2.9,.03,1.85,0,3.69,.02,5.54,0,.33-.1,.43-.42,.42-.62-.02-1.25-.03-1.87,0-.37,.02-.45-.13-.45-.47,.02-1.54,0-3.07,0-4.61,0-1.55-.36-1.88-1.88-1.79q-1.52,.09-1.52,1.61c0,1.58-.01,3.15,0,4.73,0,.4-.09,.56-.51,.53-.6-.04-1.2-.03-1.81,0-.33,.01-.43-.09-.42-.42,.02-1.2,0-2.41,0-3.61Z"/>
        <path class="cls-2" d="M44.12,6.67c0,2.01-.03,4.02,.02,6.04,.01,.58-.17,.71-.7,.67-.54-.04-1.08-.02-1.62,0-.31,.01-.43-.07-.43-.41,.01-4.13,.01-8.25,0-12.38,0-.32,.08-.43,.41-.44,.6-.01,1.2-.05,1.8-.12,.42-.05,.53,.08,.53,.49-.02,2.05,0,4.11,0,6.16Z"/>
      </g>
      <g>
        <path class="cls-2" d="M22.92,21.06c.3,0,.46-.1,.46-.31,0-.06-.01-.12-.04-.16-.03-.05-.06-.08-.11-.12-.05-.03-.1-.06-.16-.09-.06-.02-.12-.05-.19-.07-.08-.03-.15-.06-.22-.09-.07-.03-.13-.07-.18-.12-.05-.04-.09-.1-.12-.16-.03-.06-.04-.14-.04-.22,0-.18,.06-.32,.19-.43,.12-.1,.3-.15,.51-.15,.13,0,.24,.01,.34,.04,.1,.03,.18,.06,.23,.09l-.09,.24s-.1-.05-.19-.08c-.08-.02-.18-.04-.29-.04-.06,0-.11,0-.16,.02s-.09,.03-.13,.05-.06,.05-.09,.09c-.02,.04-.03,.08-.03,.13,0,.06,.01,.1,.03,.14,.02,.04,.05,.07,.09,.1,.04,.03,.09,.06,.14,.08,.05,.02,.11,.05,.18,.07,.09,.04,.17,.07,.25,.11,.07,.04,.14,.08,.19,.13,.06,.05,.1,.11,.13,.18s.05,.15,.05,.25c0,.18-.07,.32-.2,.42-.13,.1-.32,.15-.56,.15-.08,0-.16,0-.23-.02s-.13-.02-.18-.04c-.05-.01-.1-.03-.14-.05-.04-.02-.07-.03-.09-.04l.09-.24s.12,.06,.21,.09c.09,.03,.21,.05,.34,.05Z"/>
        <path class="cls-2" d="M25.39,20.48c0,.12-.02,.24-.05,.34-.04,.1-.09,.19-.15,.26-.06,.07-.14,.13-.23,.17-.09,.04-.19,.06-.29,.06s-.2-.02-.29-.06c-.09-.04-.17-.09-.23-.17s-.12-.16-.15-.26-.05-.21-.05-.34,.02-.23,.05-.33c.04-.1,.09-.19,.15-.26,.06-.07,.14-.13,.23-.17,.09-.04,.19-.06,.29-.06s.2,.02,.29,.06,.17,.09,.23,.17c.06,.07,.12,.16,.15,.26,.04,.1,.05,.21,.05,.33Zm-.29,0c0-.18-.04-.32-.12-.42s-.19-.15-.32-.15-.24,.05-.32,.15-.12,.24-.12,.42,.04,.32,.12,.42c.08,.1,.19,.15,.32,.15s.24-.05,.32-.15c.08-.1,.12-.24,.12-.42Z"/>
        <path class="cls-2" d="M26.25,21.29c-.17,0-.29-.04-.37-.11-.07-.07-.11-.18-.11-.33v-1.87l.28-.05v1.87s0,.08,.01,.11c0,.03,.02,.05,.04,.07,.02,.02,.04,.03,.07,.04,.03,0,.07,.02,.11,.02l-.04,.23Z"/>
        <path class="cls-2" d="M27.84,21.22c-.06,.02-.15,.03-.25,.05-.1,.02-.23,.03-.36,.03-.12,0-.22-.02-.3-.05-.08-.03-.15-.08-.2-.15-.05-.06-.09-.14-.11-.23-.02-.09-.03-.18-.03-.29v-.88h.28v.82c0,.19,.03,.33,.09,.41,.06,.08,.16,.12,.3,.12,.03,0,.06,0,.09,0,.03,0,.06,0,.09,0s.05,0,.08,0,.04,0,.05-.01v-1.32h.28v1.51Z"/>
        <path class="cls-2" d="M29.04,21.3l-.03,.08c.06,.03,.1,.06,.13,.09,.03,.03,.04,.08,.04,.15,0,.02,0,.05-.01,.07s-.03,.05-.05,.07c-.02,.02-.06,.04-.1,.05-.04,.01-.09,.02-.15,.02-.05,0-.1,0-.14-.01-.04,0-.08-.02-.1-.03l.03-.17s.05,.02,.08,.02c.03,0,.06,0,.09,0,.07,0,.11-.02,.11-.07,0-.02-.01-.04-.03-.06-.02-.02-.05-.03-.09-.05h-.02s.02-.06,.03-.1c.01-.03,.03-.07,.04-.1-.1-.01-.19-.04-.27-.09-.08-.04-.14-.1-.19-.17s-.09-.15-.12-.24c-.03-.09-.04-.19-.04-.3,0-.12,.02-.23,.05-.33,.04-.1,.08-.19,.15-.26,.06-.07,.14-.13,.24-.17,.09-.04,.2-.06,.31-.06,.07,0,.14,0,.21,.02,.07,.01,.14,.03,.2,.06l-.06,.24s-.09-.04-.15-.05-.11-.02-.18-.02c-.16,0-.28,.05-.36,.15-.08,.1-.12,.24-.12,.43,0,.08,0,.16,.03,.23,.02,.07,.05,.13,.09,.18,.04,.05,.09,.09,.16,.12,.06,.03,.14,.04,.23,.04,.07,0,.14,0,.2-.02s.11-.03,.14-.05l.04,.23s-.04,.02-.06,.03-.06,.02-.09,.02-.07,.01-.11,.02-.08,0-.12,.01Z"/>
        <path class="cls-2" d="M31.05,20.48c0,.12-.02,.24-.05,.34s-.09,.19-.15,.26-.14,.13-.23,.17c-.09,.04-.19,.06-.29,.06s-.2-.02-.29-.06c-.09-.04-.17-.09-.23-.17s-.12-.16-.15-.26c-.04-.1-.05-.21-.05-.34s.02-.23,.05-.33c.04-.1,.09-.19,.15-.26,.06-.07,.14-.13,.23-.17,.09-.04,.19-.06,.29-.06s.2,.02,.29,.06c.09,.04,.17,.09,.23,.17,.06,.07,.12,.16,.15,.26,.04,.1,.05,.21,.05,.33Zm-.24-1.35s-.02,.05-.04,.08c-.02,.03-.04,.06-.06,.09-.03,.03-.06,.05-.09,.07-.04,.02-.07,.03-.12,.03s-.08,0-.11-.02c-.04-.01-.07-.03-.1-.04-.03-.02-.06-.03-.09-.04-.02,0-.05-.01-.07-.01-.03,0-.07,.01-.09,.04-.03,.03-.05,.06-.07,.09l-.14-.07s.02-.05,.04-.08c.02-.03,.04-.06,.07-.09,.03-.03,.06-.05,.09-.07,.04-.02,.07-.03,.12-.03,.04,0,.08,0,.11,.02,.04,.01,.07,.03,.1,.04,.03,.02,.06,.03,.09,.04s.05,.01,.07,.01c.03,0,.07-.01,.09-.04s.05-.06,.07-.09l.14,.07Zm-.05,1.35c0-.18-.04-.32-.12-.42s-.19-.15-.32-.15-.24,.05-.32,.15-.12,.24-.12,.42,.04,.32,.12,.42c.08,.1,.19,.15,.32,.15s.24-.05,.32-.15c.08-.1,.12-.24,.12-.42Z"/>
        <path class="cls-2" d="M31.36,20.49c0-.14,.02-.26,.06-.36,.04-.1,.09-.19,.16-.26,.07-.07,.14-.12,.23-.15,.09-.03,.17-.05,.26-.05,.21,0,.37,.07,.48,.2,.11,.13,.17,.33,.17,.6v.05s0,.04,0,.05h-1.07c.01,.16,.06,.28,.14,.37,.08,.08,.21,.13,.38,.13,.1,0,.18,0,.25-.03,.07-.02,.12-.03,.15-.05l.04,.23s-.09,.04-.18,.06c-.08,.02-.18,.03-.29,.03-.14,0-.25-.02-.35-.06-.1-.04-.18-.1-.24-.17s-.11-.16-.14-.26-.05-.21-.05-.33Zm1.07-.15c0-.13-.03-.23-.09-.31s-.15-.12-.27-.12c-.06,0-.12,.01-.17,.04-.05,.03-.09,.06-.12,.1-.03,.04-.06,.09-.08,.14-.02,.05-.03,.1-.04,.16h.77Z"/>
        <path class="cls-2" d="M33.49,21.06c.11,0,.2-.02,.25-.05s.08-.08,.08-.14-.03-.12-.08-.16c-.05-.04-.14-.09-.27-.13-.06-.02-.12-.05-.17-.07-.06-.02-.1-.05-.14-.09-.04-.03-.07-.07-.1-.12-.02-.05-.04-.11-.04-.18,0-.14,.05-.25,.15-.33,.1-.08,.24-.12,.42-.12,.04,0,.09,0,.13,0,.04,0,.08,.01,.12,.02s.07,.01,.1,.02c.03,0,.05,.02,.07,.02l-.05,.24s-.08-.03-.14-.05c-.06-.02-.14-.03-.23-.03-.08,0-.15,.02-.2,.05-.06,.03-.09,.08-.09,.15,0,.03,0,.06,.02,.09s.03,.05,.06,.07,.06,.04,.1,.06c.04,.02,.09,.04,.14,.06,.07,.03,.14,.06,.2,.08,.06,.03,.11,.06,.15,.09,.04,.04,.07,.08,.09,.13s.03,.11,.03,.19c0,.14-.05,.25-.16,.33s-.26,.11-.46,.11c-.14,0-.25-.01-.32-.03-.08-.02-.13-.04-.16-.05l.05-.24s.08,.03,.15,.05,.16,.04,.28,.04Z"/>
        <path class="cls-2" d="M36.16,18.98l.28-.05v2.28c-.06,.02-.15,.04-.25,.05-.1,.02-.22,.03-.35,.03-.12,0-.23-.02-.32-.06-.1-.04-.18-.09-.25-.16-.07-.07-.12-.16-.16-.26-.04-.1-.06-.21-.06-.34s.02-.23,.05-.33c.03-.1,.08-.19,.14-.26,.06-.07,.13-.13,.22-.17,.09-.04,.19-.06,.3-.06,.09,0,.17,.01,.24,.04,.07,.02,.12,.05,.15,.07v-.79Zm0,1.05s-.08-.05-.15-.08-.13-.04-.21-.04c-.08,0-.15,.01-.21,.04-.06,.03-.1,.07-.14,.12-.04,.05-.06,.11-.08,.18-.02,.07-.02,.15-.02,.22,0,.18,.04,.32,.13,.42,.09,.1,.21,.15,.36,.15,.08,0,.14,0,.19-.01s.09-.01,.12-.02v-.99Z"/>
        <path class="cls-2" d="M36.83,20.49c0-.14,.02-.26,.06-.36,.04-.1,.09-.19,.16-.26,.07-.07,.14-.12,.23-.15,.09-.03,.17-.05,.26-.05,.21,0,.37,.07,.48,.2,.11,.13,.17,.33,.17,.6v.05s0,.04,0,.05h-1.07c.01,.16,.06,.28,.14,.37,.08,.08,.21,.13,.38,.13,.1,0,.18,0,.25-.03,.07-.02,.12-.03,.15-.05l.04,.23s-.09,.04-.18,.06c-.08,.02-.18,.03-.29,.03-.14,0-.25-.02-.35-.06-.1-.04-.18-.1-.24-.17s-.11-.16-.14-.26-.05-.21-.05-.33Zm1.07-.15c0-.13-.03-.23-.09-.31s-.15-.12-.27-.12c-.06,0-.12,.01-.17,.04-.05,.03-.09,.06-.12,.1-.03,.04-.06,.09-.08,.14-.02,.05-.03,.1-.04,.16h.77Z"/>
        <path class="cls-2" d="M39.79,21.06c.3,0,.46-.1,.46-.31,0-.06-.01-.12-.04-.16-.03-.05-.06-.08-.11-.12-.05-.03-.1-.06-.16-.09-.06-.02-.12-.05-.19-.07-.08-.03-.15-.06-.22-.09-.07-.03-.13-.07-.18-.12-.05-.04-.09-.1-.12-.16-.03-.06-.04-.14-.04-.22,0-.18,.06-.32,.19-.43,.12-.1,.3-.15,.51-.15,.13,0,.24,.01,.34,.04,.1,.03,.18,.06,.23,.09l-.09,.24s-.1-.05-.19-.08c-.08-.02-.18-.04-.29-.04-.06,0-.11,0-.16,.02s-.09,.03-.13,.05-.06,.05-.09,.09c-.02,.04-.03,.08-.03,.13,0,.06,.01,.1,.03,.14,.02,.04,.05,.07,.09,.1,.04,.03,.09,.06,.14,.08,.05,.02,.11,.05,.18,.07,.09,.04,.17,.07,.25,.11,.07,.04,.14,.08,.19,.13,.06,.05,.1,.11,.13,.18s.05,.15,.05,.25c0,.18-.07,.32-.2,.42-.13,.1-.32,.15-.56,.15-.08,0-.16,0-.23-.02s-.13-.02-.18-.04c-.05-.01-.1-.03-.14-.05-.04-.02-.07-.03-.09-.04l.09-.24s.12,.06,.21,.09c.09,.03,.21,.05,.34,.05Z"/>
        <path class="cls-2" d="M41.39,19.67c.11,0,.21,.01,.28,.04,.08,.03,.14,.07,.19,.12,.05,.05,.08,.12,.1,.19,.02,.07,.03,.15,.03,.24v.97s-.06,0-.1,.02c-.04,0-.09,.01-.15,.02-.05,0-.11,.01-.18,.02-.06,0-.13,0-.19,0-.09,0-.17,0-.24-.03-.07-.02-.14-.05-.19-.09-.05-.04-.1-.09-.13-.15-.03-.06-.05-.14-.05-.23s.02-.16,.05-.22c.04-.06,.08-.11,.14-.15,.06-.04,.13-.07,.21-.08,.08-.02,.16-.03,.25-.03,.03,0,.06,0,.09,0,.03,0,.06,0,.09,.01s.05,0,.07,.01c.02,0,.03,0,.04,0v-.08s0-.09-.01-.14c-.01-.04-.03-.08-.05-.12s-.06-.06-.11-.08c-.05-.02-.1-.03-.18-.03-.09,0-.17,0-.24,.02-.07,.01-.12,.03-.15,.04l-.03-.23s.1-.03,.18-.05c.08-.01,.18-.02,.27-.02Zm.02,1.4c.07,0,.12,0,.18,0,.05,0,.09,0,.13-.02v-.46s-.05-.02-.1-.03c-.04,0-.1-.01-.16-.01-.04,0-.09,0-.13,0-.05,0-.09,.02-.13,.04-.04,.02-.07,.05-.1,.08-.03,.03-.04,.08-.04,.13,0,.1,.03,.17,.1,.21,.06,.04,.15,.06,.26,.06Z"/>
        <path class="cls-2" d="M43.69,21.22c-.06,.02-.15,.03-.25,.05-.11,.02-.23,.03-.36,.03-.12,0-.22-.02-.3-.05-.08-.03-.15-.08-.2-.15s-.09-.14-.11-.23c-.02-.09-.03-.18-.03-.29v-.88h.28v.82c0,.19,.03,.33,.09,.41,.06,.08,.16,.12,.3,.12,.03,0,.06,0,.09,0,.03,0,.06,0,.09,0s.05,0,.08,0c.02,0,.04,0,.05-.01v-1.32h.28v1.51Zm-.27-2.11l-.42,.41-.14-.13,.38-.46,.18,.18Z"/>
        <path class="cls-2" d="M45.18,18.98l.28-.05v2.28c-.06,.02-.15,.04-.25,.05-.1,.02-.21,.03-.34,.03-.12,0-.23-.02-.32-.06-.1-.04-.18-.09-.25-.16-.07-.07-.12-.16-.16-.26-.04-.1-.06-.21-.06-.34s.02-.23,.05-.33,.08-.19,.14-.26,.13-.13,.22-.17,.19-.06,.3-.06c.09,0,.17,.01,.24,.04,.07,.02,.12,.05,.15,.07v-.79Zm0,1.05s-.08-.05-.15-.08-.13-.04-.21-.04c-.08,0-.15,.01-.21,.04-.06,.03-.1,.07-.14,.12s-.06,.11-.08,.18c-.02,.07-.02,.15-.02,.22,0,.18,.05,.32,.13,.42,.09,.1,.21,.15,.36,.15,.08,0,.14,0,.19-.01s.09-.01,.12-.02v-.99Z"/>
        <path class="cls-2" d="M45.85,20.49c0-.14,.02-.26,.06-.36,.04-.1,.09-.19,.16-.26,.07-.07,.14-.12,.23-.15,.09-.03,.17-.05,.26-.05,.21,0,.37,.07,.48,.2,.11,.13,.17,.33,.17,.6v.05s0,.04,0,.05h-1.07c.01,.16,.06,.28,.14,.37,.08,.08,.21,.13,.38,.13,.1,0,.18,0,.25-.03,.07-.02,.12-.03,.15-.05l.04,.23s-.09,.04-.18,.06c-.08,.02-.18,.03-.29,.03-.14,0-.25-.02-.35-.06-.1-.04-.18-.1-.24-.17s-.11-.16-.14-.26-.05-.21-.05-.33Zm1.07-.15c0-.13-.03-.23-.09-.31s-.15-.12-.27-.12c-.06,0-.12,.01-.17,.04-.05,.03-.09,.06-.12,.1-.03,.04-.06,.09-.08,.14-.02,.05-.03,.1-.04,.16h.77Z"/>
        <path class="cls-2" d="M49.22,21.31c-.15,0-.28-.02-.4-.07-.12-.05-.22-.12-.31-.21-.09-.09-.15-.21-.2-.34s-.07-.29-.07-.46,.03-.33,.08-.46c.05-.13,.12-.25,.21-.34,.09-.09,.19-.16,.31-.21,.12-.05,.25-.07,.38-.07,.09,0,.16,0,.23,.02,.07,.01,.13,.03,.18,.04s.09,.03,.12,.05c.03,.02,.05,.03,.07,.04l-.08,.24s-.04-.03-.08-.04c-.03-.01-.07-.03-.12-.04s-.09-.03-.14-.03-.1-.01-.15-.01c-.11,0-.21,.02-.3,.06s-.16,.09-.22,.16c-.06,.07-.11,.16-.14,.26s-.05,.22-.05,.35,.01,.24,.04,.34c.03,.1,.07,.19,.13,.26,.06,.07,.13,.13,.22,.17s.19,.06,.3,.06c.13,0,.25-.01,.33-.04s.15-.05,.2-.08l.07,.24s-.04,.02-.07,.04c-.04,.01-.08,.03-.13,.04-.05,.01-.12,.03-.19,.04-.07,0-.15,.01-.23,.01Z"/>
        <path class="cls-2" d="M51.5,20.48c0,.12-.02,.24-.05,.34-.04,.1-.09,.19-.15,.26-.06,.07-.14,.13-.23,.17-.09,.04-.19,.06-.29,.06s-.2-.02-.29-.06c-.09-.04-.17-.09-.23-.17s-.12-.16-.15-.26-.05-.21-.05-.34,.02-.23,.05-.33c.04-.1,.09-.19,.15-.26,.06-.07,.14-.13,.23-.17,.09-.04,.19-.06,.29-.06s.2,.02,.29,.06,.17,.09,.23,.17c.06,.07,.12,.16,.15,.26,.04,.1,.05,.21,.05,.33Zm-.29,0c0-.18-.04-.32-.12-.42s-.19-.15-.32-.15-.24,.05-.32,.15-.12,.24-.12,.42,.04,.32,.12,.42c.08,.1,.19,.15,.32,.15s.24-.05,.32-.15c.08-.1,.12-.24,.12-.42Z"/>
        <path class="cls-2" d="M52.46,19.67s.05,0,.08,0c.03,0,.06,0,.09,.01,.03,0,.06,.01,.08,.02,.02,0,.04,0,.06,.01l-.05,.24s-.06-.02-.11-.03-.12-.02-.2-.02c-.05,0-.1,0-.15,.02s-.08,.02-.1,.02v1.31h-.28v-1.49c.07-.02,.15-.05,.25-.07s.21-.03,.33-.03Z"/>
        <path class="cls-2" d="M54.42,20.49c0,.12-.02,.23-.05,.33s-.08,.19-.14,.26c-.06,.07-.13,.13-.22,.17-.09,.04-.19,.06-.3,.06-.09,0-.17-.01-.24-.04s-.12-.05-.15-.07v.62h-.28v-2.07c.07-.02,.15-.03,.25-.05s.21-.03,.34-.03c.12,0,.23,.02,.32,.06s.18,.09,.25,.16c.07,.07,.12,.16,.16,.26s.06,.21,.06,.34Zm-.29,0c0-.18-.05-.32-.13-.42s-.21-.15-.36-.15c-.08,0-.15,0-.2,0-.05,0-.08,.01-.11,.02v.98s.08,.06,.15,.08,.13,.04,.21,.04c.08,0,.15-.01,.21-.04,.06-.03,.1-.07,.14-.12,.04-.05,.06-.11,.08-.18,.02-.07,.02-.14,.02-.22Z"/>
        <path class="cls-2" d="M56.19,20.48c0,.12-.02,.24-.05,.34s-.09,.19-.15,.26-.14,.13-.23,.17c-.09,.04-.19,.06-.29,.06s-.2-.02-.29-.06c-.09-.04-.17-.09-.23-.17s-.12-.16-.15-.26c-.04-.1-.05-.21-.05-.34s.02-.23,.05-.33c.04-.1,.09-.19,.15-.26,.06-.07,.14-.13,.23-.17,.09-.04,.19-.06,.29-.06s.2,.02,.29,.06c.09,.04,.17,.09,.23,.17,.06,.07,.12,.16,.15,.26,.04,.1,.05,.21,.05,.33Zm-.29,0c0-.18-.04-.32-.12-.42s-.19-.15-.32-.15-.24,.05-.32,.15-.12,.24-.12,.42,.04,.32,.12,.42c.08,.1,.19,.15,.32,.15s.24-.05,.32-.15c.08-.1,.12-.24,.12-.42Z"/>
        <path class="cls-2" d="M57.16,19.67s.05,0,.08,0c.03,0,.06,0,.09,.01,.03,0,.06,.01,.08,.02,.03,0,.04,0,.06,.01l-.05,.24s-.06-.02-.11-.03-.12-.02-.2-.02c-.05,0-.1,0-.15,.02s-.08,.02-.1,.02v1.31h-.28v-1.49c.07-.02,.15-.05,.25-.07s.21-.03,.33-.03Z"/>
        <path class="cls-2" d="M58.24,19.67c.11,0,.21,.01,.28,.04,.08,.03,.14,.07,.19,.12,.05,.05,.08,.12,.1,.19,.02,.07,.03,.15,.03,.24v.97s-.06,0-.1,.02c-.04,0-.09,.01-.15,.02-.05,0-.11,.01-.18,.02s-.13,0-.19,0c-.09,0-.17,0-.24-.03-.07-.02-.14-.05-.19-.09-.05-.04-.1-.09-.13-.15-.03-.06-.05-.14-.05-.23s.02-.16,.05-.22c.03-.06,.08-.11,.14-.15,.06-.04,.13-.07,.21-.08s.16-.03,.25-.03c.03,0,.06,0,.09,0,.03,0,.06,0,.09,.01s.05,0,.07,.01c.02,0,.03,0,.04,0v-.08s0-.09-.01-.14c0-.04-.03-.08-.05-.12-.03-.03-.06-.06-.11-.08-.04-.02-.1-.03-.18-.03-.09,0-.17,0-.24,.02-.07,.01-.12,.03-.15,.04l-.03-.23s.1-.03,.18-.05c.08-.01,.18-.02,.27-.02Zm.02,1.4c.07,0,.12,0,.18,0,.05,0,.09,0,.13-.02v-.46s-.05-.02-.1-.03-.1-.01-.16-.01c-.04,0-.09,0-.13,0-.05,0-.09,.02-.13,.04-.04,.02-.07,.05-.1,.08-.03,.03-.04,.08-.04,.13,0,.1,.03,.17,.1,.21,.06,.04,.15,.06,.26,.06Z"/>
        <path class="cls-2" d="M59.57,19.7h.59v.23h-.59v.72c0,.08,0,.14,.02,.19,.01,.05,.03,.09,.05,.12,.02,.03,.05,.05,.09,.06,.04,.01,.08,.02,.13,.02,.08,0,.15,0,.2-.03,.05-.02,.09-.03,.11-.04l.05,.23s-.08,.03-.15,.05-.15,.03-.24,.03c-.11,0-.19-.01-.26-.04-.07-.03-.12-.07-.17-.12-.04-.05-.07-.12-.09-.2-.02-.08-.03-.17-.03-.27v-1.39l.28-.05v.48Z"/>
        <path class="cls-2" d="M60.65,19.42c-.05,0-.09-.02-.13-.05s-.05-.08-.05-.13,.02-.1,.05-.13c.03-.03,.08-.05,.13-.05s.09,.02,.13,.05c.03,.03,.05,.08,.05,.13s-.02,.1-.05,.13c-.04,.03-.08,.05-.13,.05Zm.14,1.84h-.28v-1.56h.28v1.56Z"/>
        <path class="cls-2" d="M62.49,19.7c-.08,.29-.17,.57-.27,.84-.11,.27-.21,.51-.3,.72h-.25c-.1-.21-.2-.45-.3-.72-.11-.27-.2-.55-.27-.84h.3c.02,.1,.05,.2,.09,.31,.03,.11,.07,.22,.11,.33s.07,.21,.11,.32c.04,.1,.07,.19,.11,.27,.03-.08,.07-.17,.11-.27s.08-.21,.11-.32,.07-.22,.1-.33c.03-.11,.06-.22,.09-.31h.29Z"/>
        <path class="cls-2" d="M63.28,19.67c.11,0,.21,.01,.28,.04,.08,.03,.14,.07,.19,.12,.05,.05,.08,.12,.1,.19,.02,.07,.03,.15,.03,.24v.97s-.06,0-.1,.02c-.04,0-.09,.01-.15,.02-.05,0-.11,.01-.18,.02s-.13,0-.19,0c-.09,0-.17,0-.24-.03-.07-.02-.14-.05-.19-.09-.05-.04-.1-.09-.13-.15-.03-.06-.05-.14-.05-.23s.02-.16,.05-.22c.03-.06,.08-.11,.14-.15,.06-.04,.13-.07,.21-.08s.16-.03,.25-.03c.03,0,.06,0,.09,0,.03,0,.06,0,.09,.01s.05,0,.07,.01c.02,0,.03,0,.04,0v-.08s0-.09-.01-.14c0-.04-.03-.08-.05-.12-.03-.03-.06-.06-.11-.08-.04-.02-.1-.03-.18-.03-.09,0-.17,0-.24,.02-.07,.01-.12,.03-.15,.04l-.03-.23s.1-.03,.18-.05c.08-.01,.18-.02,.27-.02Zm.02,1.4c.07,0,.12,0,.18,0,.05,0,.09,0,.13-.02v-.46s-.05-.02-.1-.03-.1-.01-.16-.01c-.04,0-.09,0-.13,0-.05,0-.09,.02-.13,.04-.04,.02-.07,.05-.1,.08-.03,.03-.04,.08-.04,.13,0,.1,.03,.17,.1,.21,.06,.04,.15,.06,.26,.06Z"/>
      </g>
    </g>
  </g>
</svg>